<?xml version="1.0" encoding="UTF-8" standalone="no"?><!DOCTYPE svg PUBLIC "-//W3C//DTD SVG 1.1//EN" "http://www.w3.org/Graphics/SVG/1.1/DTD/svg11.dtd"><svg width="100%" height="100%" viewBox="0 0 120 360" version="1.1" xmlns="http://www.w3.org/2000/svg" xmlns:xlink="http://www.w3.org/1999/xlink" xml:space="preserve" xmlns:serif="http://www.serif.com/" style="fill-rule:evenodd;clip-rule:evenodd;stroke-linejoin:round;stroke-miterlimit:1.41421;"><circle cx="114.404" cy="79.147" r="18.212" style="fill:#1976d2;"/><circle cx="92.914" cy="155.935" r="18.212" style="fill:#1976d2;"/><circle cx="66.744" cy="1.419" r="22.015" style="fill:#1976d2;"/><circle cx="34.637" cy="174.893" r="22.015" style="fill:#1976d2;"/><circle cx="110.273" cy="106.099" r="18.84" style="fill:#90caf9;"/><circle cx="73.912" cy="178.529" r="28.473" style="fill:#90caf9;"/><circle cx="62.116" cy="82.338" r="28.118" style="fill:#90caf9;"/><circle cx="12.517" cy="353.004" r="32.324" style="fill:#90caf9;"/><circle cx="26.801" cy="129.708" r="19.863" style="fill:#90caf9;"/><circle cx="77.57" cy="109.406" r="19.635" style="fill:#1e88e5;"/><circle cx="17.302" cy="98.242" r="30.915" style="fill:#64b5f6;"/><circle cx="63.572" cy="36.576" r="25.67" style="fill:#64b5f6;"/><circle cx="25.188" cy="276.146" r="30.37" style="fill:#2196f3;"/><circle cx="11.104" cy="228.305" r="33.247" style="fill:#64b5f6;"/><circle cx="45.288" cy="314.656" r="33.247" style="fill:#64b5f6;"/><circle cx="89.409" cy="310.221" r="23.224" style="fill:#1976d2;"/><circle cx="7.228" cy="7.713" r="24.116" style="fill:#2196f3;"/><circle cx="91.024" cy="88.178" r="16.402" style="fill:#2196f3;"/><circle cx="63.832" cy="152.145" r="16.402" style="fill:#2196f3;"/><circle cx="27.504" cy="31.601" r="16.691" style="fill:#42a5f5;"/><circle cx="6.326" cy="181.894" r="22.34" style="fill:#42a5f5;"/><circle cx="51.597" cy="209.437" r="16.691" style="fill:#42a5f5;"/><circle cx="60.841" cy="360.223" r="24.636" style="fill:#42a5f5;"/><circle cx="104.292" cy="14.54" r="26.51" style="fill:#42a5f5;"/><circle cx="82.675" cy="274.153" r="28.715" style="fill:#42a5f5;"/><circle cx="-0.523" cy="65.605" r="17.488" style="fill:#1e88e5;"/><circle cx="113.538" cy="185.765" r="17.488" style="fill:#1e88e5;"/><circle cx="85.503" cy="211.344" r="25.67" style="fill:#64b5f6;"/><circle cx="105.715" cy="242.032" r="19.164" style="fill:#2196f3;"/><circle cx="108.065" cy="359.833" r="37.138" style="fill:#2196f3;"/></svg>